# xmcd
#
# Track frame offsets:
# 150
# 20815
# 34027
# 44997
# 55970
# 71007
# 80920
# 102060
# 117565
# 134682
# 145327
# 152067
# 165555
# 177680
# 186177
#
# Disc length: 2638 seconds
#
#
# Revision: 0
# Processed by: cddbd v1.5.1PL0 Copyright (c) Steve Scherf et al.
# Submitted via: FreeRIP 2.70 
#
DISCID=ea0a4c0f
DTITLE=Vic Chesnutt - Little
DYEAR=2004
DGENRE=
TTITLE0=Isadora Duncan
TTITLE1=Danny Carlisle
TTITLE2=Gepetto
TTITLE3=Bakersfield
TTITLE4=Mr. Reilly
TTITLE5=Rabbit Box
TTITLE6=Speed Racer
TTITLE7=Soft Picasso
TTITLE8=Independence Day
TTITLE9=Stevie Smith
TTITLE10=Bernadette
TTITLE11=Vernon
TTITLE12=Acting So Bad
TTITLE13=Miss Mary
TTITLE14=Elberton Fair
EXTD=
EXTT0=
EXTT1=
EXTT2=
EXTT3=
EXTT4=
EXTT5=
EXTT6=
EXTT7=
EXTT8=
EXTT9=
EXTT10=
EXTT11=
EXTT12=
EXTT13=
EXTT14=
PLAYORDER=
